<?xml version="1.0" encoding="utf-8"?>
<!-- Generator: Adobe Illustrator 27.5.0, SVG Export Plug-In . SVG Version: 6.00 Build 0)  -->
<svg version="1.1" xmlns="http://www.w3.org/2000/svg" xmlns:xlink="http://www.w3.org/1999/xlink" x="0px" y="0px"
	 viewBox="0 0 500 500" style="enable-background:new 0 0 500 500;" xml:space="preserve">
<g id="BACKGROUND">
	<rect x="0.021" y="0.021" style="fill-rule:evenodd;clip-rule:evenodd;fill:#FFFFFF;" width="500" height="500"/>
</g>
<g id="OBJECTS">
	<path style="fill-rule:evenodd;clip-rule:evenodd;fill:#195F63;" d="M250.3,120.845c-71.563,0-129.575,58.012-129.575,129.574
		c0,71.562,58.013,129.574,129.575,129.574c71.561,0,129.573-58.013,129.573-129.574C379.873,178.856,321.86,120.845,250.3,120.845z
		"/>
	<path style="fill-rule:evenodd;clip-rule:evenodd;fill:#143836;" d="M250.3,139.975c-57.422,0-104.604,43.82-109.939,99.842
		c-0.875,9.191-0.565,9.492,8.341,9.141c67.915-0.596,135.404-0.255,203.745,0c8.961,0.034,8.673,0.154,7.789-9.144
		C354.898,183.793,307.718,139.975,250.3,139.975z"/>
	<g>
		<path style="fill-rule:evenodd;clip-rule:evenodd;fill:#BA291C;" d="M385.922,176.114c4.274,0.137,7.628,3.713,7.49,7.987
			c-0.136,4.273-3.712,7.627-7.986,7.491c-4.273-0.138-7.628-3.714-7.491-7.987C378.071,179.331,381.647,175.977,385.922,176.114z"
			/>
		<g>
			<g>
				<path style="fill-rule:evenodd;clip-rule:evenodd;fill:#ECBF56;" d="M385.83,178.979c0.766,0.024,1.366,0.665,1.342,1.431
					c-0.024,0.767-0.665,1.367-1.43,1.342c-0.768-0.024-1.367-0.665-1.343-1.431C384.425,179.555,385.064,178.954,385.83,178.979z"
					/>
				<path style="fill-rule:evenodd;clip-rule:evenodd;fill:#ECBF56;" d="M385.606,185.955c0.766,0.024,1.367,0.665,1.342,1.43
					c-0.024,0.767-0.665,1.367-1.431,1.343c-0.766-0.024-1.367-0.665-1.342-1.431C384.2,186.531,384.841,185.931,385.606,185.955z"
					/>
			</g>
			<g>
				<path style="fill-rule:evenodd;clip-rule:evenodd;fill:#ECBF56;" d="M390.549,184.01c-0.024,0.766-0.665,1.366-1.431,1.342
					c-0.767-0.024-1.368-0.666-1.343-1.431c0.024-0.767,0.665-1.367,1.432-1.343C389.973,182.604,390.573,183.244,390.549,184.01z"
					/>
				<path style="fill-rule:evenodd;clip-rule:evenodd;fill:#ECBF56;" d="M383.572,183.785c-0.023,0.767-0.665,1.367-1.432,1.343
					c-0.766-0.024-1.367-0.665-1.342-1.431c0.024-0.766,0.665-1.367,1.432-1.342C382.996,182.38,383.597,183.02,383.572,183.785z"/>
			</g>
		</g>
	</g>
	<g>
		<path style="fill-rule:evenodd;clip-rule:evenodd;fill:#BA291C;" d="M113.336,176.114c4.274,0.137,7.628,3.713,7.491,7.987
			c-0.138,4.273-3.713,7.627-7.986,7.491c-4.274-0.138-7.629-3.714-7.492-7.987C105.486,179.331,109.062,175.977,113.336,176.114z"
			/>
		<g>
			<g>
				<path style="fill-rule:evenodd;clip-rule:evenodd;fill:#ECBF56;" d="M113.245,178.979c0.765,0.024,1.365,0.665,1.341,1.431
					c-0.024,0.767-0.665,1.367-1.43,1.342c-0.767-0.024-1.367-0.665-1.343-1.431C111.838,179.555,112.478,178.954,113.245,178.979z"
					/>
				<path style="fill-rule:evenodd;clip-rule:evenodd;fill:#ECBF56;" d="M113.02,185.955c0.767,0.024,1.367,0.665,1.342,1.43
					c-0.024,0.767-0.665,1.367-1.431,1.343c-0.766-0.024-1.366-0.665-1.342-1.431C111.614,186.531,112.255,185.931,113.02,185.955z"
					/>
			</g>
			<g>
				<path style="fill-rule:evenodd;clip-rule:evenodd;fill:#ECBF56;" d="M117.963,184.01c-0.024,0.766-0.666,1.366-1.431,1.342
					c-0.767-0.024-1.368-0.666-1.343-1.431c0.024-0.767,0.665-1.367,1.431-1.343C117.387,182.604,117.987,183.244,117.963,184.01z"
					/>
				<path style="fill-rule:evenodd;clip-rule:evenodd;fill:#ECBF56;" d="M110.985,183.785c-0.025,0.767-0.664,1.367-1.43,1.343
					c-0.767-0.024-1.367-0.665-1.342-1.431c0.023-0.766,0.664-1.367,1.431-1.342C110.41,182.38,111.011,183.02,110.985,183.785z"/>
			</g>
		</g>
	</g>
	<g>
		<path style="fill-rule:evenodd;clip-rule:evenodd;fill:#EECAAA;" d="M216.609,147.457c-10.987,3.114-5.782,11.765-2.053,18.448
			c3.729,6.683,28.644,61.785,35.326,60.105c6.683-1.68,38.61-66.221,38.61-66.221s5.865-10.289-3.544-12.074
			C275.54,145.931,244.323,142.051,216.609,147.457z"/>
		<path style="fill-rule:evenodd;clip-rule:evenodd;fill:#D7A486;" d="M213.045,163.026c0.916-0.452,1.885-0.802,2.867-1.08
			c0.047-0.014,0.086-0.023,0.134-0.032c2.686-0.523,5.39-0.959,8.102-1.319c12.124-1.609,24.632-1.793,36.836-1.104
			c4.834,0.273,9.667,0.687,14.475,1.263c3.183,0.38,6.399,0.82,9.549,1.418c0.623,0.118,1.241,0.279,1.838,0.497
			c0.456,0.167,0.786,0.486,0.965,0.939c0.179,0.451,0.158,0.91-0.061,1.345c-5.024,9.982-10.172,19.923-15.499,29.746
			c-2.109,3.888-4.251,7.759-6.449,11.598c-1.959,3.422-3.964,6.828-6.068,10.162c-1.592,2.522-3.278,5.107-5.137,7.44
			c-1.001,1.256-2.693,3.3-4.312,3.706c-1.974,0.496-3.859-1.206-5.1-2.521c-1.876-1.991-3.561-4.468-5.045-6.763
			c-2.029-3.136-3.915-6.387-5.734-9.648c-2.059-3.692-4.04-7.43-5.979-11.186c-3.316-6.42-6.508-12.901-9.673-19.396
			c-1.175-2.412-2.345-4.828-3.528-7.236c-0.676-1.378-1.357-2.809-2.105-4.149c-0.261-0.469-0.524-0.936-0.786-1.406
			c-0.227-0.407-0.272-0.842-0.132-1.288C212.342,163.565,212.626,163.233,213.045,163.026z"/>
		<path style="fill-rule:evenodd;clip-rule:evenodd;fill:#FBFAED;" d="M226.519,167.068c-7.112,0.881-6.515,2.41-3.864,7.838
			c8.511,17.429,22.602,45.559,27.282,44.382c2.91-0.732,10.858-14.005,18.616-28.176c1.698-3.102,11.03-19.616,10.943-21.139
			c-0.069-1.199-1.112-2.205-4.414-2.548C258.957,165.749,242.649,165.07,226.519,167.068z"/>
		<g>
			<path style="fill-rule:evenodd;clip-rule:evenodd;fill:#BA291C;" d="M232.95,176.358c1.924-3.332,6.185-4.474,9.516-2.55
				c3.333,1.923,4.474,6.184,2.551,9.516c-1.924,3.332-6.184,4.474-9.517,2.55C232.168,183.95,231.025,179.69,232.95,176.358z"/>
			<g>
				<g>
					<path style="fill-rule:evenodd;clip-rule:evenodd;fill:#ECBF56;" d="M235.183,177.646c0.346-0.596,1.108-0.801,1.705-0.456
						c0.598,0.345,0.802,1.107,0.457,1.704c-0.345,0.598-1.108,0.802-1.705,0.457C235.043,179.007,234.839,178.244,235.183,177.646z
						"/>
					<path style="fill-rule:evenodd;clip-rule:evenodd;fill:#ECBF56;" d="M240.622,180.786c0.345-0.596,1.106-0.801,1.704-0.456
						c0.597,0.345,0.802,1.107,0.457,1.705c-0.345,0.597-1.107,0.802-1.705,0.456C240.481,182.146,240.277,181.384,240.622,180.786z
						"/>
				</g>
				<g>
					<path style="fill-rule:evenodd;clip-rule:evenodd;fill:#ECBF56;" d="M241.177,176.041c0.598,0.345,0.803,1.108,0.457,1.705
						c-0.345,0.597-1.108,0.801-1.704,0.457c-0.597-0.345-0.802-1.108-0.458-1.705C239.817,175.901,240.58,175.696,241.177,176.041z
						"/>
					<path style="fill-rule:evenodd;clip-rule:evenodd;fill:#ECBF56;" d="M238.037,181.48c0.598,0.344,0.802,1.108,0.457,1.705
						c-0.345,0.597-1.108,0.801-1.705,0.457c-0.596-0.346-0.801-1.108-0.457-1.705C236.677,181.34,237.44,181.135,238.037,181.48z"
						/>
				</g>
			</g>
		</g>
		<g>
			<path style="fill-rule:evenodd;clip-rule:evenodd;fill:#BA291C;" d="M242.784,196.43c1.924-3.332,6.185-4.474,9.518-2.551
				c3.331,1.924,4.473,6.185,2.549,9.517c-1.923,3.332-6.185,4.474-9.516,2.55C242.003,204.021,240.861,199.761,242.784,196.43z"/>
			<g>
				<g>
					<path style="fill-rule:evenodd;clip-rule:evenodd;fill:#ECBF56;" d="M245.018,197.719c0.345-0.598,1.108-0.802,1.705-0.457
						c0.597,0.344,0.801,1.108,0.457,1.704c-0.345,0.598-1.108,0.802-1.705,0.458C244.877,199.078,244.673,198.315,245.018,197.719z
						"/>
					<path style="fill-rule:evenodd;clip-rule:evenodd;fill:#ECBF56;" d="M250.456,200.858c0.345-0.597,1.107-0.802,1.705-0.457
						c0.597,0.345,0.802,1.108,0.457,1.705c-0.345,0.597-1.109,0.801-1.705,0.457C250.316,202.218,250.111,201.455,250.456,200.858z
						"/>
				</g>
				<g>
					<path style="fill-rule:evenodd;clip-rule:evenodd;fill:#ECBF56;" d="M251.013,196.112c0.596,0.345,0.801,1.108,0.457,1.705
						c-0.347,0.597-1.109,0.801-1.706,0.456c-0.597-0.344-0.802-1.107-0.457-1.705C249.651,195.973,250.415,195.768,251.013,196.112
						z"/>
					<path style="fill-rule:evenodd;clip-rule:evenodd;fill:#ECBF56;" d="M247.872,201.551c0.597,0.345,0.801,1.108,0.457,1.704
						c-0.346,0.599-1.108,0.802-1.705,0.457c-0.597-0.344-0.802-1.107-0.457-1.704C246.512,201.411,247.275,201.206,247.872,201.551
						z"/>
				</g>
			</g>
		</g>
		<path style="fill-rule:evenodd;clip-rule:evenodd;fill:#195F63;" d="M231.955,170.105c0.726,0.417,0.976,1.344,0.56,2.069
			c-0.418,0.726-1.345,0.976-2.07,0.559c-0.207-0.12-0.447-0.144-0.667-0.084c-0.217,0.058-0.41,0.197-0.53,0.406l-0.026,0.045
			c-0.097,0.194-0.112,0.414-0.058,0.616c0.059,0.219,0.196,0.413,0.4,0.53c0.726,0.417,0.976,1.344,0.559,2.07
			c-0.417,0.725-1.343,0.976-2.069,0.559c-0.939-0.543-1.569-1.41-1.828-2.374c-0.248-0.927-0.154-1.949,0.338-2.859
			c0.016-0.037,0.035-0.073,0.057-0.109c0.54-0.934,1.407-1.563,2.373-1.821C229.955,169.453,231.019,169.564,231.955,170.105z"/>
		<path style="fill-rule:evenodd;clip-rule:evenodd;fill:#195F63;" d="M248.423,183.939c0.669-0.505,1.622-0.372,2.128,0.298
			c0.505,0.67,0.373,1.622-0.297,2.129c-0.191,0.145-0.307,0.354-0.337,0.574l-0.004,0.022c-0.021,0.215,0.034,0.439,0.175,0.625
			c0.146,0.191,0.352,0.307,0.569,0.336l0.006,0.001c0.22,0.029,0.453-0.024,0.646-0.172c0.67-0.506,1.623-0.373,2.13,0.297
			c0.506,0.67,0.373,1.623-0.299,2.129c-0.857,0.65-1.901,0.891-2.893,0.754c-0.995-0.14-1.935-0.655-2.585-1.514
			c-0.639-0.844-0.882-1.863-0.761-2.837l0.007-0.058C247.046,185.531,247.56,184.591,248.423,183.939z"/>
		<path style="fill-rule:evenodd;clip-rule:evenodd;fill:#195F63;" d="M273.928,170.959c0.596,0.595,0.596,1.558,0,2.153
			c-0.518,0.518-1.318,0.584-1.907,0.197c-0.188-0.085-0.397-0.097-0.591-0.044c-0.192,0.051-0.364,0.164-0.484,0.329
			c-0.025,0.051-0.055,0.101-0.085,0.148c-0.085,0.188-0.097,0.396-0.045,0.59c0.052,0.196,0.172,0.374,0.351,0.495
			c0.485,0.254,0.817,0.763,0.817,1.349c0,0.841-0.682,1.523-1.523,1.523v-0.004c-0.26,0-0.521-0.066-0.762-0.204
			c-0.936-0.541-1.563-1.408-1.821-2.375c-0.244-0.908-0.158-1.908,0.308-2.805c0.047-0.11,0.108-0.216,0.181-0.314
			c0.548-0.854,1.37-1.427,2.279-1.67c0.909-0.244,1.907-0.158,2.806,0.308C273.624,170.709,273.786,170.817,273.928,170.959z"/>
		<path style="fill-rule:evenodd;clip-rule:evenodd;fill:#603E29;" d="M248.554,172.232c0.42-0.728,1.352-0.977,2.079-0.557
			c0.728,0.42,0.978,1.351,0.557,2.079c-0.42,0.728-1.351,0.978-2.078,0.557C248.383,173.892,248.133,172.961,248.554,172.232z"/>
		<path style="fill-rule:evenodd;clip-rule:evenodd;fill:#603E29;" d="M237.895,191.852c0.42-0.727,1.351-0.976,2.078-0.557
			c0.729,0.42,0.978,1.352,0.558,2.078c-0.42,0.729-1.351,0.979-2.079,0.558C237.725,193.512,237.476,192.581,237.895,191.852z"/>
		<path style="fill-rule:evenodd;clip-rule:evenodd;fill:#603E29;" d="M258.031,191.763c0.421-0.727,1.35-0.977,2.079-0.557
			c0.728,0.42,0.977,1.35,0.558,2.079c-0.421,0.727-1.352,0.977-2.08,0.557C257.86,193.422,257.611,192.491,258.031,191.763z"/>
		<g>
			<path style="fill-rule:evenodd;clip-rule:evenodd;fill:#EECAAA;" d="M216.519,164.142c-4.836,1.708-10.142-0.829-11.85-5.666
				c-1.708-4.836,0.828-10.143,5.666-11.851c8.274-2.924,23.817-4.307,39-4.349c16.076-0.044,32.382,1.438,39.77,4.205
				c4.807,1.801,7.242,7.157,5.441,11.964c-1.801,4.807-7.157,7.243-11.963,5.442c-5.346-2.002-19.066-3.068-33.222-3.03
				C235.969,160.895,222.752,161.94,216.519,164.142z"/>
			<path style="fill-rule:evenodd;clip-rule:evenodd;fill:#FBFAED;" d="M214.19,154.025c-1.418,0.52-2.989-0.208-3.51-1.626
				c-0.519-1.418,0.208-2.989,1.627-3.51c1.852-0.686,17.992-3.82,38.561-3.658c11.345,0.09,24.094,1.157,36.643,4.143
				c1.472,0.348,2.381,1.823,2.032,3.295c-0.348,1.471-1.824,2.381-3.295,2.032c-12.162-2.893-24.479-3.927-35.424-4.013
				C231.016,150.532,215.886,153.398,214.19,154.025z"/>
			<g>
				<g>
					<g>
						<path style="fill-rule:evenodd;clip-rule:evenodd;fill:#D7A486;" d="M259.797,185.336c-1.063,1.991-6.035-0.123-4.92-2.217
							l4.446-6.377c0.425-0.798,1.416-1.1,2.215-0.674c0.798,0.425,1.1,1.417,0.673,2.215L259.797,185.336z"/>
						<path style="fill-rule:evenodd;clip-rule:evenodd;fill:#D7A486;" d="M254.217,175.181c1.923-3.332,6.184-4.474,9.515-2.55
							c3.333,1.924,4.475,6.184,2.551,9.517c-3.319,5.749-2.856-0.215-6.415-2.27C256.221,177.773,250.556,181.519,254.217,175.181z
							"/>
						<path style="fill-rule:evenodd;clip-rule:evenodd;fill:#D7A486;" d="M256.632,176.902c1.53,0.03,3.008,0.264,4.353,1.04
							c1.256,0.725,2.17,1.771,2.944,2.978c0.252,0.394,0.177,0.525,0.418,0.11c1.305-2.261,0.528-5.158-1.732-6.464
							c-2.261-1.305-5.157-0.528-6.463,1.732C255.679,177.119,255.777,176.884,256.632,176.902z"/>
					</g>
					<path style="fill-rule:evenodd;clip-rule:evenodd;fill:#EECAAA;" d="M259.308,173.483c0.612-0.186,1.453-0.182,2.297,0.048
						c0.835,0.227,1.668,0.684,2.3,1.294c0.631,0.61,0.948,1.251,0.995,1.693c0.045,0.45-0.175,0.686-0.673,0.626
						c-0.499-0.063-1.193-0.393-1.969-0.758c-0.775-0.364-1.639-0.745-2.384-1.105c-0.748-0.362-1.219-0.668-1.326-0.98
						C258.439,173.988,258.694,173.67,259.308,173.483z"/>
				</g>
				<path style="fill-rule:evenodd;clip-rule:evenodd;fill:#603E29;" d="M255.967,184.419c0.669,0.685,2.852,1.377,3.249,0.76
					l2.131-4.284c-0.236,2.044-0.2,2.669-1.058,4.799c-0.752,1.869-4.186,1.034-5.641-0.206c-0.294-0.364-0.239-0.898,0.125-1.193
					C255.138,184,255.672,184.056,255.967,184.419z"/>
			</g>
		</g>
	</g>
	<g>
		<path style="fill-rule:evenodd;clip-rule:evenodd;fill:#EECAAA;" d="M180.264,165.922c7.931-8.217,13.102,0.455,17.233,6.896
			c4.131,6.442,40.949,54.415,36.314,59.515c-4.634,5.098-76.603,2.782-76.603,2.782s-11.839,0.313-8.972-8.823
			C151.102,217.155,162.417,187.803,180.264,165.922z"/>
		<path style="fill-rule:evenodd;clip-rule:evenodd;fill:#D7A486;" d="M195.672,170.127c-0.831,0.595-1.597,1.284-2.306,2.018
			c-0.033,0.035-0.061,0.065-0.091,0.103c-1.73,2.121-3.39,4.299-4.987,6.52c-7.142,9.93-13.207,20.87-18.36,31.954
			c-2.04,4.39-3.956,8.848-5.718,13.356c-1.167,2.985-2.297,6.029-3.257,9.088c-0.189,0.605-0.339,1.226-0.43,1.854
			c-0.067,0.482,0.059,0.923,0.373,1.293c0.314,0.371,0.727,0.57,1.213,0.582c11.173,0.282,22.365,0.437,33.541,0.376
			c4.422-0.024,8.846-0.085,13.268-0.211c3.941-0.112,7.891-0.272,11.824-0.555c2.974-0.213,6.049-0.48,8.983-1.017
			c1.58-0.289,4.18-0.816,5.303-2.052c1.368-1.505,0.759-3.972,0.185-5.685c-0.869-2.595-2.259-5.248-3.581-7.64
			c-1.807-3.269-3.783-6.466-5.8-9.609c-2.282-3.558-4.643-7.067-7.038-10.551c-4.095-5.953-8.303-11.827-12.536-17.683
			c-1.572-2.173-3.149-4.345-4.714-6.525c-0.895-1.246-1.836-2.522-2.665-3.814c-0.29-0.452-0.578-0.905-0.869-1.356
			c-0.252-0.393-0.614-0.638-1.072-0.726C196.478,169.763,196.052,169.855,195.672,170.127z"/>
		<path style="fill-rule:evenodd;clip-rule:evenodd;fill:#FBFAED;" d="M192.876,183.913c4.132-5.854,5.199-4.605,8.733,0.294
			c11.348,15.729,29.497,41.428,26.251,44.999c-2.02,2.221-17.473,2.962-33.626,3.113c-3.536,0.033-22.501,0.466-23.802-0.33
			c-1.025-0.626-1.419-2.021-0.164-5.093C176.402,211.889,183.501,197.192,192.876,183.913z"/>
		<g>
			<path style="fill-rule:evenodd;clip-rule:evenodd;fill:#BA291C;" d="M198.03,193.969c-3.847,0.123-6.863,3.34-6.739,7.186
				c0.122,3.846,3.34,6.863,7.186,6.74c3.846-0.124,6.862-3.341,6.739-7.187C205.093,196.862,201.875,193.845,198.03,193.969z"/>
			<g>
				<g>
					<path style="fill-rule:evenodd;clip-rule:evenodd;fill:#ECBF56;" d="M198.112,196.545c-0.689,0.023-1.23,0.6-1.207,1.288
						c0.022,0.69,0.598,1.23,1.287,1.208c0.689-0.022,1.23-0.6,1.207-1.288C199.378,197.064,198.802,196.523,198.112,196.545z"/>
					<path style="fill-rule:evenodd;clip-rule:evenodd;fill:#ECBF56;" d="M198.313,202.822c-0.688,0.021-1.229,0.599-1.207,1.287
						c0.023,0.689,0.599,1.229,1.288,1.208c0.688-0.022,1.229-0.599,1.206-1.287C199.579,203.341,199.003,202.8,198.313,202.822z"/>
				</g>
				<g>
					<path style="fill-rule:evenodd;clip-rule:evenodd;fill:#ECBF56;" d="M193.867,201.072c0.023,0.689,0.599,1.23,1.287,1.207
						c0.689-0.022,1.23-0.598,1.208-1.287c-0.023-0.689-0.599-1.23-1.287-1.208C194.387,199.807,193.845,200.383,193.867,201.072z"
						/>
					<path style="fill-rule:evenodd;clip-rule:evenodd;fill:#ECBF56;" d="M200.144,200.871c0.022,0.689,0.599,1.229,1.288,1.207
						c0.689-0.021,1.23-0.598,1.207-1.287c-0.023-0.689-0.599-1.23-1.287-1.207C200.662,199.605,200.122,200.182,200.144,200.871z"
						/>
				</g>
			</g>
		</g>
		<g>
			<path style="fill-rule:evenodd;clip-rule:evenodd;fill:#BA291C;" d="M188.488,212.981c-3.845,0.124-6.863,3.341-6.739,7.187
				c0.123,3.846,3.341,6.862,7.186,6.739c3.847-0.123,6.863-3.34,6.739-7.186C195.552,215.876,192.334,212.858,188.488,212.981z"/>
			<g>
				<g>
					<path style="fill-rule:evenodd;clip-rule:evenodd;fill:#ECBF56;" d="M188.57,215.559c-0.688,0.023-1.229,0.599-1.206,1.288
						c0.021,0.689,0.598,1.23,1.287,1.207c0.688-0.022,1.23-0.599,1.207-1.287C189.836,216.077,189.26,215.537,188.57,215.559z"/>
					<path style="fill-rule:evenodd;clip-rule:evenodd;fill:#ECBF56;" d="M188.771,221.836c-0.687,0.021-1.228,0.598-1.206,1.287
						c0.021,0.689,0.598,1.229,1.287,1.207c0.689-0.022,1.23-0.599,1.207-1.287C190.037,222.354,189.462,221.814,188.771,221.836z"
						/>
				</g>
				<g>
					<path style="fill-rule:evenodd;clip-rule:evenodd;fill:#ECBF56;" d="M184.326,220.085c0.021,0.689,0.599,1.229,1.287,1.208
						c0.689-0.023,1.23-0.599,1.208-1.287c-0.023-0.689-0.599-1.23-1.288-1.208C184.845,218.819,184.304,219.396,184.326,220.085z"
						/>
					<path style="fill-rule:evenodd;clip-rule:evenodd;fill:#ECBF56;" d="M190.602,219.884c0.022,0.689,0.599,1.229,1.287,1.208
						c0.689-0.022,1.23-0.599,1.208-1.287c-0.023-0.689-0.599-1.23-1.287-1.208C191.121,218.619,190.581,219.195,190.602,219.884z"
						/>
				</g>
			</g>
		</g>
		<path style="fill-rule:evenodd;clip-rule:evenodd;fill:#195F63;" d="M196.019,190.046c0.024,0.838-0.632,1.538-1.47,1.564
			c-0.837,0.026-1.538-0.631-1.564-1.469c-0.034-1.08,0.372-2.07,1.057-2.801c0.684-0.728,1.645-1.195,2.727-1.23
			c1.08-0.034,2.07,0.372,2.801,1.057c0.727,0.683,1.195,1.645,1.229,2.727c0.026,0.837-0.632,1.537-1.469,1.563
			c-0.838,0.026-1.537-0.632-1.564-1.469c-0.007-0.239-0.112-0.454-0.278-0.609c-0.162-0.152-0.383-0.243-0.624-0.235
			c-0.238,0.007-0.455,0.113-0.609,0.278C196.101,189.585,196.01,189.806,196.019,190.046z"/>
		<path style="fill-rule:evenodd;clip-rule:evenodd;fill:#195F63;" d="M198.048,214.089c-0.841,0-1.522-0.682-1.522-1.522
			c0-0.673,0.438-1.244,1.044-1.444c0.938-0.386,1.944-0.38,2.83-0.053c0.939,0.347,1.747,1.055,2.2,2.04l0.005,0.011
			c0.445,0.978,0.457,2.042,0.112,2.973c-0.347,0.938-1.055,1.746-2.04,2.199c-0.205,0.093-0.42,0.137-0.63,0.137v0.006
			c-0.841,0-1.523-0.682-1.523-1.523c0-0.643,0.398-1.193,0.962-1.416c0.179-0.102,0.308-0.265,0.376-0.45
			c0.07-0.19,0.077-0.402,0.009-0.601c-0.025-0.047-0.047-0.096-0.067-0.145c-0.104-0.178-0.265-0.308-0.449-0.376
			c-0.191-0.071-0.403-0.077-0.601-0.008C198.542,214.026,198.302,214.089,198.048,214.089z"/>
		<path style="fill-rule:evenodd;clip-rule:evenodd;fill:#195F63;" d="M176.908,227.105c0,0.841-0.683,1.522-1.523,1.522
			c-0.84,0-1.521-0.682-1.521-1.521c0-0.038,0.002-0.076,0.005-0.113c0.009-1.017,0.407-1.947,1.058-2.641
			c0.683-0.727,1.645-1.195,2.726-1.229l0.048-0.002v-0.004c0.037,0,0.075,0.001,0.112,0.004c1.018,0.008,1.947,0.407,2.641,1.058
			c0.728,0.683,1.196,1.646,1.23,2.726c0.026,0.838-0.631,1.539-1.469,1.564c-0.837,0.026-1.538-0.631-1.563-1.468
			c-0.008-0.239-0.113-0.455-0.278-0.61c-0.145-0.136-0.338-0.223-0.549-0.234c-0.041,0.004-0.082,0.005-0.124,0.005v-0.003
			c-0.22,0.019-0.418,0.122-0.562,0.275c-0.137,0.146-0.224,0.338-0.235,0.548C176.905,227.023,176.908,227.064,176.908,227.105z"/>
		<path style="fill-rule:evenodd;clip-rule:evenodd;fill:#603E29;" d="M187.028,205.777c-0.84,0.027-1.499,0.73-1.472,1.57
			c0.026,0.84,0.729,1.499,1.569,1.472c0.84-0.026,1.499-0.73,1.472-1.569C188.571,206.41,187.869,205.751,187.028,205.777z"/>
		<path style="fill-rule:evenodd;clip-rule:evenodd;fill:#603E29;" d="M209.355,205.642c-0.839,0.027-1.498,0.73-1.472,1.57
			c0.027,0.84,0.73,1.499,1.569,1.472c0.841-0.027,1.501-0.729,1.474-1.569C210.899,206.274,210.196,205.615,209.355,205.642z"/>
		<path style="fill-rule:evenodd;clip-rule:evenodd;fill:#603E29;" d="M199.772,223.352c-0.84,0.026-1.499,0.73-1.472,1.569
			c0.026,0.84,0.73,1.499,1.57,1.472c0.839-0.026,1.498-0.729,1.472-1.569C201.316,223.983,200.613,223.324,199.772,223.352z"/>
		<path style="fill-rule:evenodd;clip-rule:evenodd;fill:#EECAAA;" d="M195.015,173.719c3.789-3.459,4.057-9.334,0.599-13.123
			c-3.458-3.788-9.334-4.056-13.122-0.598c-6.483,5.916-15.038,18.966-22.241,32.331c-7.627,14.15-14.017,29.225-15.064,37.044
			c-0.682,5.088,2.892,9.764,7.979,10.444c5.087,0.682,9.764-2.891,10.444-7.978c0.757-5.657,6.294-18.257,13.009-30.718
			C182.973,189.331,190.133,178.173,195.015,173.719z"/>
		<path style="fill-rule:evenodd;clip-rule:evenodd;fill:#FBFAED;" d="M186.883,167.838c1.128-1.005,1.228-2.733,0.223-3.862
			c-1.005-1.127-2.733-1.228-3.861-0.223c-1.477,1.311-11.858,14.06-21.425,32.27c-5.276,10.044-10.353,21.787-13.644,34.259
			c-0.388,1.462,0.484,2.96,1.945,3.348c1.461,0.387,2.961-0.484,3.348-1.946c3.19-12.087,8.092-23.434,13.182-33.122
			C175.863,181.023,185.531,169.036,186.883,167.838z"/>
		<path style="fill-rule:evenodd;clip-rule:evenodd;fill:#195F63;" d="M196.019,190.046c0.024,0.838-0.632,1.538-1.47,1.564
			c-0.837,0.026-1.538-0.631-1.564-1.469c-0.034-1.08,0.372-2.07,1.057-2.801c0.684-0.728,1.645-1.195,2.727-1.23
			c1.08-0.034,2.07,0.372,2.801,1.057c0.727,0.683,1.195,1.645,1.229,2.727c0.026,0.837-0.632,1.537-1.469,1.563
			c-0.838,0.026-1.537-0.632-1.564-1.469c-0.007-0.239-0.112-0.454-0.278-0.609c-0.162-0.152-0.383-0.243-0.624-0.235
			c-0.238,0.007-0.455,0.113-0.609,0.278C196.101,189.585,196.01,189.806,196.019,190.046z"/>
		<g>
			<g>
				<g>
					<path style="fill-rule:evenodd;clip-rule:evenodd;fill:#D7A486;" d="M219.348,222.605c1.254,1.875-2.957,5.262-4.276,3.29
						l-3.524-6.929c-0.503-0.752-0.301-1.769,0.45-2.271c0.752-0.502,1.768-0.3,2.271,0.451L219.348,222.605z"/>
					<path style="fill-rule:evenodd;clip-rule:evenodd;fill:#D7A486;" d="M207.76,222.732c-2.028-3.269-1.025-7.564,2.244-9.594
						c3.269-2.029,7.563-1.025,9.593,2.243c3.502,5.64-1.537,2.417-5.028,4.585C210.992,222.188,211.622,228.949,207.76,222.732z"/>
					<path style="fill-rule:evenodd;clip-rule:evenodd;fill:#D7A486;" d="M210.418,221.414c0.749-1.334,1.653-2.527,2.972-3.346
						c1.232-0.766,2.585-1.078,4.015-1.191c0.466-0.037,0.547,0.091,0.294-0.317c-1.377-2.217-4.299-2.899-6.516-1.523
						c-2.218,1.378-2.9,4.299-1.522,6.516C210.159,222.358,209.999,222.159,210.418,221.414z"/>
				</g>
				<path style="fill-rule:evenodd;clip-rule:evenodd;fill:#EECAAA;" d="M208.668,217.442c0.125-0.628,0.525-1.368,1.125-2.004
					c0.593-0.628,1.391-1.146,2.226-1.416c0.836-0.269,1.55-0.246,1.961-0.077c0.42,0.172,0.525,0.477,0.235,0.888
					c-0.29,0.41-0.908,0.866-1.597,1.378c-0.688,0.512-1.431,1.094-2.1,1.58c-0.671,0.488-1.164,0.759-1.49,0.707
					C208.703,218.445,208.542,218.07,208.668,217.442z"/>
			</g>
			<path style="fill-rule:evenodd;clip-rule:evenodd;fill:#603E29;" d="M216.731,225.549c0.92-0.268,2.56-1.864,2.203-2.507
				l-2.771-3.9c1.691,1.174,2.258,1.436,3.731,3.197c1.293,1.545-1.063,4.179-2.844,4.875c-0.46,0.089-0.904-0.213-0.992-0.673
				C215.971,226.081,216.271,225.637,216.731,225.549z"/>
		</g>
	</g>
	<g>
		<g>
			<path style="fill-rule:evenodd;clip-rule:evenodd;fill:#EECAAA;" d="M318.41,165.922c-7.931-8.217-13.102,0.455-17.233,6.896
				c-4.132,6.442-40.951,54.415-36.315,59.515c4.634,5.098,76.604,2.782,76.604,2.782s11.838,0.313,8.972-8.823
				C347.571,217.155,336.258,187.803,318.41,165.922z"/>
			<path style="fill-rule:evenodd;clip-rule:evenodd;fill:#D7A486;" d="M303.002,170.127c0.83,0.595,1.597,1.284,2.306,2.018
				c0.033,0.035,0.061,0.065,0.091,0.103c1.729,2.121,3.39,4.299,4.987,6.52c7.142,9.93,13.207,20.87,18.36,31.954
				c2.041,4.39,3.955,8.848,5.718,13.356c1.166,2.985,2.298,6.029,3.257,9.088c0.19,0.605,0.34,1.226,0.429,1.854
				c0.068,0.482-0.058,0.923-0.372,1.293c-0.313,0.371-0.728,0.57-1.213,0.582c-11.173,0.282-22.366,0.437-33.541,0.376
				c-4.423-0.024-8.846-0.085-13.267-0.211c-3.941-0.112-7.891-0.272-11.823-0.555c-2.974-0.213-6.051-0.48-8.983-1.017
				c-1.581-0.289-4.181-0.816-5.303-2.052c-1.369-1.505-0.76-3.972-0.186-5.685c0.87-2.595,2.26-5.248,3.581-7.64
				c1.806-3.269,3.782-6.466,5.8-9.609c2.281-3.558,4.643-7.067,7.039-10.551c4.094-5.953,8.302-11.827,12.535-17.683
				c1.571-2.173,3.15-4.345,4.714-6.525c0.896-1.246,1.836-2.522,2.665-3.814c0.289-0.452,0.578-0.905,0.869-1.356
				c0.252-0.393,0.614-0.638,1.072-0.726C302.194,169.763,302.622,169.855,303.002,170.127z"/>
			<path style="fill-rule:evenodd;clip-rule:evenodd;fill:#FBFAED;" d="M305.797,183.913c-4.132-5.854-5.198-4.605-8.733,0.294
				c-11.349,15.729-29.497,41.428-26.25,44.999c2.019,2.221,17.473,2.962,33.627,3.113c3.535,0.033,22.499,0.466,23.801-0.33
				c1.024-0.626,1.42-2.021,0.164-5.093C322.271,211.889,315.174,197.192,305.797,183.913z"/>
			<g>
				<path style="fill-rule:evenodd;clip-rule:evenodd;fill:#BA291C;" d="M287.591,212.111c3.845,0.124,6.862,3.342,6.74,7.188
					c-0.124,3.845-3.341,6.862-7.187,6.739c-3.846-0.123-6.863-3.341-6.739-7.187C280.527,215.007,283.745,211.988,287.591,212.111z
					"/>
				<g>
					<g>
						<path style="fill-rule:evenodd;clip-rule:evenodd;fill:#ECBF56;" d="M287.509,214.689c0.689,0.021,1.228,0.599,1.207,1.287
							c-0.022,0.689-0.6,1.23-1.287,1.207c-0.689-0.021-1.23-0.598-1.208-1.287C286.243,215.208,286.819,214.667,287.509,214.689z"
							/>
						<path style="fill-rule:evenodd;clip-rule:evenodd;fill:#ECBF56;" d="M287.307,220.966c0.69,0.021,1.229,0.598,1.207,1.287
							c-0.021,0.689-0.599,1.23-1.287,1.207c-0.69-0.021-1.23-0.598-1.208-1.287C286.041,221.484,286.618,220.943,287.307,220.966z"
							/>
					</g>
					<g>
						<path style="fill-rule:evenodd;clip-rule:evenodd;fill:#ECBF56;" d="M291.754,219.215c-0.022,0.689-0.6,1.23-1.288,1.208
							c-0.689-0.021-1.229-0.598-1.208-1.287c0.023-0.688,0.599-1.229,1.288-1.207C291.234,217.95,291.775,218.526,291.754,219.215z
							"/>
						<path style="fill-rule:evenodd;clip-rule:evenodd;fill:#ECBF56;" d="M285.477,219.015c-0.022,0.688-0.6,1.229-1.287,1.207
							c-0.69-0.021-1.23-0.599-1.209-1.287c0.021-0.689,0.599-1.23,1.288-1.207C284.959,217.749,285.499,218.326,285.477,219.015z"
							/>
					</g>
				</g>
			</g>
			<g>
				<path style="fill-rule:evenodd;clip-rule:evenodd;fill:#BA291C;" d="M310.185,212.981c3.846,0.124,6.862,3.341,6.74,7.187
					c-0.125,3.846-3.342,6.862-7.188,6.739c-3.845-0.123-6.862-3.34-6.739-7.186C303.123,215.876,306.34,212.858,310.185,212.981z"
					/>
				<g>
					<g>
						<path style="fill-rule:evenodd;clip-rule:evenodd;fill:#ECBF56;" d="M310.102,215.559c0.689,0.023,1.23,0.599,1.208,1.288
							c-0.022,0.689-0.599,1.23-1.287,1.207c-0.689-0.022-1.23-0.599-1.209-1.287C308.838,216.077,309.414,215.537,310.102,215.559z
							"/>
						<path style="fill-rule:evenodd;clip-rule:evenodd;fill:#ECBF56;" d="M309.902,221.836c0.689,0.021,1.229,0.598,1.207,1.287
							c-0.022,0.689-0.6,1.229-1.287,1.207c-0.691-0.022-1.23-0.599-1.208-1.287C308.636,222.354,309.213,221.814,309.902,221.836z"
							/>
					</g>
					<g>
						<path style="fill-rule:evenodd;clip-rule:evenodd;fill:#ECBF56;" d="M314.348,220.085c-0.022,0.689-0.599,1.229-1.287,1.208
							c-0.689-0.023-1.23-0.599-1.207-1.287c0.022-0.689,0.598-1.23,1.287-1.208C313.829,218.819,314.369,219.396,314.348,220.085z"
							/>
						<path style="fill-rule:evenodd;clip-rule:evenodd;fill:#ECBF56;" d="M308.071,219.884c-0.022,0.689-0.6,1.229-1.287,1.208
							c-0.689-0.022-1.229-0.599-1.208-1.287c0.022-0.689,0.599-1.23,1.288-1.208C307.553,218.619,308.094,219.195,308.071,219.884z
							"/>
					</g>
				</g>
			</g>
			<path style="fill-rule:evenodd;clip-rule:evenodd;fill:#195F63;" d="M305.694,190.094c0,0.841-0.682,1.522-1.522,1.522
				c-0.84,0-1.521-0.682-1.521-1.522c0-0.042,0.002-0.083,0.005-0.124c-0.012-0.211-0.099-0.402-0.234-0.548
				c-0.144-0.153-0.342-0.256-0.561-0.275v0.003c-0.042,0-0.084-0.002-0.125-0.005c-0.211,0.012-0.402,0.099-0.548,0.234
				c-0.153,0.145-0.256,0.342-0.275,0.561h0.003c0,0.841-0.681,1.523-1.522,1.523s-1.522-0.682-1.522-1.523h0.005l0.001-0.048
				c0.034-1.081,0.503-2.043,1.229-2.726c0.694-0.65,1.624-1.05,2.641-1.058c0.037-0.003,0.074-0.005,0.113-0.005v0.005l0.047,0.001
				c1.081,0.035,2.044,0.503,2.727,1.23c0.65,0.693,1.05,1.623,1.057,2.641C305.693,190.018,305.694,190.056,305.694,190.094z"/>
			<path style="fill-rule:evenodd;clip-rule:evenodd;fill:#195F63;" d="M301.257,211.188c0.762,0.348,1.097,1.247,0.748,2.009
				c-0.348,0.763-1.247,1.098-2.009,0.75c-0.22-0.101-0.462-0.103-0.676-0.023c-0.209,0.077-0.388,0.232-0.487,0.447
				c-0.101,0.219-0.102,0.46-0.023,0.675c0.078,0.209,0.233,0.389,0.447,0.487c0.762,0.348,1.098,1.247,0.748,2.009
				c-0.347,0.763-1.246,1.098-2.008,0.75c-0.986-0.453-1.693-1.261-2.041-2.199c-0.347-0.934-0.334-2.002,0.117-2.983
				c0.453-0.985,1.26-1.693,2.199-2.04C299.207,210.724,300.275,210.736,301.257,211.188z"/>
			<path style="fill-rule:evenodd;clip-rule:evenodd;fill:#195F63;" d="M324.805,227.153c-0.026,0.838-0.727,1.495-1.565,1.469
				c-0.837-0.026-1.495-0.727-1.469-1.564c0.008-0.241-0.083-0.462-0.235-0.625c-0.154-0.165-0.37-0.27-0.609-0.278
				c-0.24-0.008-0.463,0.083-0.625,0.235c-0.165,0.155-0.271,0.371-0.279,0.61c-0.025,0.837-0.726,1.494-1.563,1.468
				c-0.837-0.025-1.494-0.727-1.468-1.564c0.035-1.08,0.502-2.043,1.229-2.726c0.73-0.685,1.723-1.091,2.801-1.056
				c1.081,0.034,2.044,0.502,2.727,1.229C324.433,225.082,324.84,226.074,324.805,227.153z"/>
			<path style="fill-rule:evenodd;clip-rule:evenodd;fill:#603E29;" d="M311.645,205.777c0.839,0.027,1.499,0.73,1.473,1.57
				c-0.027,0.84-0.73,1.499-1.57,1.472c-0.84-0.026-1.5-0.73-1.473-1.569C310.102,206.41,310.805,205.751,311.645,205.777z"/>
			<path style="fill-rule:evenodd;clip-rule:evenodd;fill:#603E29;" d="M289.317,205.642c0.841,0.027,1.499,0.73,1.473,1.57
				c-0.027,0.84-0.73,1.499-1.569,1.472c-0.84-0.027-1.5-0.729-1.474-1.569C287.774,206.274,288.477,205.615,289.317,205.642z"/>
			<path style="fill-rule:evenodd;clip-rule:evenodd;fill:#603E29;" d="M298.9,223.352c0.841,0.026,1.499,0.73,1.473,1.569
				c-0.027,0.84-0.73,1.499-1.57,1.472c-0.84-0.026-1.499-0.729-1.472-1.569C297.357,223.983,298.06,223.324,298.9,223.352z"/>
			<path style="fill-rule:evenodd;clip-rule:evenodd;fill:#EECAAA;" d="M303.658,173.719c-3.788-3.459-4.057-9.334-0.598-13.123
				c3.459-3.788,9.334-4.056,13.122-0.598c6.483,5.916,15.039,18.966,22.242,32.331c7.626,14.15,14.015,29.225,15.063,37.044
				c0.681,5.088-2.892,9.764-7.977,10.444c-5.089,0.682-9.765-2.891-10.445-7.978c-0.758-5.657-6.294-18.257-13.009-30.718
				C315.701,189.331,308.542,178.173,303.658,173.719z"/>
		</g>
		<path style="fill-rule:evenodd;clip-rule:evenodd;fill:#FBFAED;" d="M311.211,168.418c-1.127-1.005-1.228-2.734-0.223-3.862
			c1.006-1.128,2.733-1.228,3.861-0.222c1.479,1.309,11.859,14.058,21.425,32.268c5.276,10.045,10.353,21.787,13.644,34.26
			c0.387,1.461-0.484,2.96-1.945,3.347c-1.462,0.388-2.96-0.484-3.348-1.945c-3.19-12.087-8.092-23.434-13.183-33.123
			C322.231,181.602,312.563,169.616,311.211,168.418z"/>
		<g>
			<g>
				<g>
					<path style="fill-rule:evenodd;clip-rule:evenodd;fill:#D7A486;" d="M306.877,203.613c1.633,1.558-1.74,5.779-3.457,4.142
						l-4.949-5.994c-0.654-0.624-0.678-1.66-0.054-2.314c0.623-0.653,1.66-0.679,2.313-0.055L306.877,203.613z"/>
					<path style="fill-rule:evenodd;clip-rule:evenodd;fill:#D7A486;" d="M295.597,206.261c-2.694-2.748-2.649-7.159,0.099-9.852
						c2.748-2.693,7.158-2.648,9.852,0.1c4.646,4.741-0.975,2.693-3.909,5.57C298.631,205.025,300.718,211.487,295.597,206.261z"/>
					<path style="fill-rule:evenodd;clip-rule:evenodd;fill:#D7A486;" d="M297.902,204.395c0.441-1.464,1.062-2.826,2.171-3.912
						c1.035-1.016,2.289-1.614,3.658-2.037c0.448-0.137,0.556-0.029,0.219-0.372c-1.826-1.864-4.827-1.895-6.69-0.068
						c-1.864,1.827-1.895,4.827-0.067,6.691C297.854,205.372,297.655,205.215,297.902,204.395z"/>
				</g>
				<path style="fill-rule:evenodd;clip-rule:evenodd;fill:#EECAAA;" d="M295.328,200.9c-0.014-0.642,0.216-1.449,0.663-2.201
					c0.442-0.742,1.107-1.422,1.863-1.866c0.757-0.444,1.461-0.578,1.898-0.504c0.446,0.077,0.615,0.352,0.423,0.815
					c-0.194,0.464-0.698,1.044-1.258,1.693c-0.561,0.649-1.159,1.379-1.707,2c-0.549,0.622-0.971,0.993-1.3,1.014
					C295.581,201.872,295.343,201.541,295.328,200.9z"/>
			</g>
			<path style="fill-rule:evenodd;clip-rule:evenodd;fill:#603E29;" d="M304.965,207.056c0.838-0.462,2.091-2.377,1.604-2.926
				c0.001,0-3.554-3.203-3.554-3.203c1.905,0.777,2.517,0.909,4.339,2.307c1.599,1.228-0.129,4.311-1.714,5.379
				c-0.43,0.186-0.93-0.012-1.116-0.441C304.338,207.741,304.535,207.242,304.965,207.056z"/>
		</g>
	</g>
	<path style="fill-rule:evenodd;clip-rule:evenodd;fill:#143836;" d="M148.371,325.315c50.901,68.157,147.043,70.02,202.601,5.826
		c3.317-3.835,2.148-2.56,2.549-3.004l0.74,0.051c-9.541,14.772-24.548,27.641-39.5,36.358
		c-57.7,33.643-128.59,18.055-169.684-33.479c-0.691-0.868-2.982-3.864-4.221-5.496
		C143.364,325.483,145.869,325.397,148.371,325.315z"/>
	<path style="fill-rule:evenodd;clip-rule:evenodd;fill:#143836;" d="M376.495,250.419C375.704,156.15,279.245,95.578,195,135.44
		c-43.026,20.359-69.694,61.209-73.675,108.332c-0.53,6.271,0.058,0.342-0.601,6.646c-0.288-3.663-0.326-3.025-0.264-6.691
		c0.916-53.285,37.721-100.85,87.598-118.089c85.85-29.671,173.669,33.552,175.192,124.78H376.495z"/>
	<path style="fill-rule:evenodd;clip-rule:evenodd;fill:#FFFFFF;" d="M354.745,334.617c-70.398-4.736-141.975-3.034-213.106-0.596
		c-0.846-1.189-3.322-4.57-4.128-5.787c70.59-6.259,151.941-6.591,223.532-2.681C359.163,328.532,356.853,331.809,354.745,334.617z"
		/>
	<path style="fill-rule:evenodd;clip-rule:evenodd;fill:#FFFFFF;" d="M385.553,256.872c-87.07-4.736-176.81-3.098-264.787-0.66
		c-0.255-1.723-0.319-4.979-0.575-6.447c56.298-2.043,133.191-5.404,265.106,0.553C385.468,254.489,385.894,252.702,385.553,256.872
		z"/>
	<path style="fill-rule:evenodd;clip-rule:evenodd;fill:#BA291C;" d="M411.533,266.198l-20.3,26.121l17.369,30.18
		c7.68,13.341,7.225,10.369-7.578,9.092c-98.127-8.462-200.411-9.004-298.581-0.417c-19.944,1.745-19.587,5.407-9.501-13.07
		l14.073-25.784l-19.43-26.363c-8.5-11.534-5.823-8.353,8.501-9.159c101.693-5.725,208.961-5.382,310.65,0.215
		C419.814,257.731,419.791,255.573,411.533,266.198z"/>
	<g>
		<path style="fill-rule:evenodd;clip-rule:evenodd;fill:#FFFFFF;" d="M123.472,288.483c2.343,0,4.241,1.899,4.241,4.241
			c0,2.343-1.898,4.242-4.241,4.242c-2.342,0-4.241-1.899-4.241-4.242C119.23,290.383,121.13,288.483,123.472,288.483z"/>
		<path style="fill-rule:evenodd;clip-rule:evenodd;fill:#FFFFFF;" d="M376.528,288.483c2.342,0,4.24,1.899,4.24,4.241
			c0,2.343-1.898,4.242-4.24,4.242c-2.343,0-4.243-1.899-4.243-4.242C372.285,290.383,374.185,288.483,376.528,288.483z"/>
	</g>
	<g>
		<path style="fill-rule:evenodd;clip-rule:evenodd;fill:#FFFFFF;" d="M319.916,337.148c2.41,0,4.365,1.954,4.365,4.365
			c0,2.411-1.955,4.365-4.365,4.365c-2.411,0-4.365-1.954-4.365-4.365C315.551,339.103,317.505,337.148,319.916,337.148z"/>
		<path style="fill-rule:evenodd;clip-rule:evenodd;fill:#FFFFFF;" d="M185.935,337.148c2.41,0,4.365,1.954,4.365,4.365
			c0,2.411-1.955,4.365-4.365,4.365c-2.412,0-4.365-1.954-4.365-4.365C181.57,339.103,183.523,337.148,185.935,337.148z"/>
	</g>
</g>
<g id="TEXTS">
	<g>
		<path id="SVGID_x5F_1_x5F_" style="fill-rule:evenodd;clip-rule:evenodd;fill:none;" d="M253.506,109.456
			c77.619,0,140.543,62.924,140.543,140.544c0,77.621-62.924,140.544-140.543,140.544c-77.621,0-140.545-62.923-140.545-140.544
			C112.961,172.38,175.885,109.456,253.506,109.456z"/>
		<text>		<textPath  xlink:href="#SVGID_x5F_1_x5F_" startOffset="3979.2271%">
<tspan  style="fill:#143836; font-family:'OpenSans-Extrabold'; font-size:31.3558px; letter-spacing:140;">ITALIAN PIZZA</tspan>		</textPath>
</text>
		
			<path id="SVGID_x5F_00000080901487284365134220000009290055646353518752_x5F_" style="fill-rule:evenodd;clip-rule:evenodd;fill:none;" d="
			M120.752,319.501c0,0,162.723-11.94,277.689,3.095"/>
		<text>		<textPath  xlink:href="#SVGID_x5F_00000080901487284365134220000009290055646353518752_x5F_" startOffset="21.997%">
<tspan  style="fill:#FFFFFF; font-family:'BebasNeue-Regular'; font-size:76.9393px;">COMPANY</tspan>		</textPath>
</text>
		
			<path id="SVGID_x5F_00000155130974926985346760000001392279709485038260_x5F_" style="fill-rule:evenodd;clip-rule:evenodd;fill:none;" d="
			M181.331,346.223c0,0,68.694,48.64,140.171,2.652"/>
		<text>		<textPath  xlink:href="#SVGID_x5F_00000155130974926985346760000001392279709485038260_x5F_" startOffset="28.101%">
<tspan  style="fill:#FFFFFF; font-family:'OpenSans-Extrabold'; font-size:24.7621px;">TAGLINE</tspan>		</textPath>
</text>
	</g>
</g>
</svg>
